<svg width="770" height="728" viewBox="0 0 770 728" fill="none" xmlns="http://www.w3.org/2000/svg">
<g clip-path="url(#clip0)">
<path d="M362.889 172.947H358.891V63.4019C358.891 55.0758 357.251 46.8313 354.064 39.139C350.878 31.4467 346.208 24.4573 340.32 18.5699C334.433 12.6825 327.444 8.01236 319.751 4.82613C312.059 1.63989 303.815 -2.49509e-05 295.488 2.84729e-10H63.402C55.0759 -1.83848e-05 46.8314 1.63991 39.1391 4.82615C31.4468 8.01239 24.4574 12.6825 18.57 18.5699C12.6826 24.4574 8.01242 31.4468 4.82617 39.139C1.63993 46.8313 -9.19253e-06 55.0759 0 63.4019V664.376C-6.56609e-06 672.702 1.63992 680.947 4.82617 688.639C8.01242 696.331 12.6826 703.321 18.57 709.208C24.4574 715.095 31.4468 719.766 39.1391 722.952C46.8314 726.138 55.0759 727.778 63.402 727.778H295.488C303.815 727.778 312.059 726.138 319.751 722.952C327.444 719.766 334.433 715.095 340.32 709.208C346.208 703.321 350.878 696.331 354.064 688.639C357.251 680.947 358.891 672.702 358.891 664.376V250.923H362.889V172.947Z" fill="#3F3D56"/>
<path d="M298.046 16.4951H267.751C269.144 19.9108 269.676 23.6166 269.3 27.2862C268.923 30.9558 267.65 34.4765 265.593 37.5382C263.535 40.5999 260.756 43.1086 257.501 44.8432C254.245 46.5779 250.613 47.4854 246.924 47.4857H113.965C110.276 47.4854 106.644 46.5779 103.388 44.8432C100.133 43.1086 97.3537 40.5999 95.2961 37.5382C93.2385 34.4765 91.9654 30.9558 91.589 27.2862C91.2126 23.6166 91.7444 19.9108 93.1376 16.4951H64.842C58.6242 16.4951 52.4673 17.7198 46.7228 20.0992C40.9783 22.4787 35.7587 25.9663 31.362 30.3629C26.9654 34.7596 23.4778 39.9791 21.0983 45.7236C18.7188 51.4681 17.4941 57.625 17.4941 63.8428V663.935C17.4941 670.153 18.7188 676.31 21.0983 682.055C23.4777 687.799 26.9654 693.019 31.362 697.415C35.7587 701.812 40.9783 705.3 46.7228 707.679C52.4673 710.058 58.6242 711.283 64.842 711.283H298.046C304.264 711.283 310.421 710.058 316.165 707.679C321.91 705.3 327.13 701.812 331.526 697.415C335.923 693.019 339.411 687.799 341.79 682.055C344.169 676.31 345.394 670.153 345.394 663.935V63.8428C345.394 51.2854 340.406 39.2423 331.526 30.3629C322.647 21.4835 310.604 16.4951 298.046 16.4951V16.4951Z" fill="white"/>
<path d="M304.445 110.233H58.4453V321.233H304.445V110.233Z" fill="#E6E6E6"/>
<path d="M304.445 407.233H58.4453V618.233H304.445V407.233Z" fill="#E6E6E6"/>
<path d="M115.626 565.219C115.626 565.219 104.193 590.99 113.923 590.99C123.653 590.99 246.25 591.544 249.655 584.34C252.041 579.292 250.725 561.322 249.724 551.015C249.529 549.011 248.669 547.169 247.318 545.867C245.968 544.564 244.231 543.901 242.465 544.012C215.951 545.679 116.898 551.858 117.329 551.087C118.18 549.563 117.572 549.978 117.572 549.978C117.572 549.978 113.68 564.111 115.626 565.219Z" fill="#3F3D56"/>
<path opacity="0.1" d="M250.717 551.032C250.521 549.023 249.656 547.177 248.298 545.871C246.94 544.566 245.194 543.9 243.417 544.012C216.755 545.683 117.151 551.877 117.584 551.104C118.44 549.576 117.829 549.993 117.829 549.993C117.829 549.993 116.955 553.155 116.24 556.609C116.341 556.598 116.417 556.706 116.087 557.366C116.057 557.515 116.029 557.664 116 557.813C119.989 558.26 215.657 552.311 241.705 550.679C243.481 550.567 245.228 551.232 246.586 552.538C247.943 553.843 248.809 555.69 249.005 557.698C249.753 565.38 250.676 577.307 250.114 585C250.331 584.866 250.514 584.673 250.647 584.437C253.047 579.377 251.724 561.364 250.717 551.032Z" fill="black"/>
<path d="M129.183 527.388C127.91 526.951 126.3 526.385 126.445 525.464C126.522 524.974 127.106 524.593 127.529 524.182C128.344 523.391 128.564 522.276 127.688 521.512C126.812 520.748 124.703 520.646 123.93 521.455C123.532 521.871 123.556 522.392 123.351 522.862C122.711 524.328 120.12 524.971 117.919 525.541C115.719 526.11 113.256 527.17 113.463 528.686C113.689 530.34 117.084 531.808 115.718 533.218C115.223 533.73 114.181 534.015 113.959 534.6C113.803 535.012 114.116 535.43 114.42 535.806L116.582 538.479C117.443 539.542 118.329 540.699 118.041 541.883C117.47 544.229 112.828 545.126 109.149 544.863C107.802 544.766 106.219 544.634 105.293 545.269C104.58 545.759 104.581 546.521 104.818 547.174C105.428 548.853 107.381 550.308 109.88 550.945C107.079 551.565 105.979 554.178 107.913 555.618C106.806 556.045 105.61 556.083 104.483 555.728C103.527 556.716 104.089 558.072 105.302 558.936C106.515 559.8 108.233 560.286 109.897 560.748L108.34 562.382C109.467 563.369 111.901 563.021 113.542 562.397C115.183 561.773 116.963 560.935 118.802 561.261C120.526 561.568 121.83 562.858 123.586 562.637C124.947 562.466 125.594 561.485 126.018 560.638L127.82 557.038C130.386 557.488 133.083 555.516 132.052 553.943C134.923 554.289 137.748 552.198 136.806 550.424C138.335 551.747 139.411 553.284 139.938 554.896C140.173 555.616 140.316 556.378 140.957 556.988C141.376 557.338 141.862 557.574 142.375 557.678C142.889 557.782 143.418 557.752 143.919 557.589C143.396 558.728 142.972 560.057 144.047 561.023C145.123 561.989 148.227 561.715 148.09 560.531C149.73 561.322 151.569 562.065 153.619 562.124C155.669 562.183 157.912 561.308 158.099 559.997C160.988 561.066 164.01 561.612 167.052 561.614C167.311 560.737 169.118 560.453 170.47 560.668C171.821 560.882 173.074 561.397 174.466 561.398C175.858 561.399 177.355 560.459 176.642 559.692C179.573 560.38 182.582 560.55 185.559 560.197C188.368 559.862 191.03 559.067 193.875 558.896C196.76 558.698 199.649 559.21 202.34 560.396C203.272 560.834 204.431 561.387 205.456 561.043C206.037 560.847 206.319 560.426 206.714 560.09C208.413 558.644 211.887 558.921 214.568 559.489C217.248 560.058 220.366 560.743 222.714 559.738C223.601 559.358 224.254 558.772 225.196 558.454C228.573 557.314 232.615 560.236 236.199 559.395C237.366 559.121 238.313 558.466 239.549 558.385C241.742 558.242 243.191 559.91 245.323 560.268C247.536 560.641 249.934 559.13 249.394 557.705C251.521 557.758 253.641 557.427 255.674 556.725L254.669 554.697C257.172 554.652 259.013 552.639 257.853 551.215C260.363 550.679 262.348 549.236 262.863 547.572C263.379 545.907 262.406 544.087 260.407 542.976C259.228 542.32 257.678 541.859 257.004 540.955C256.518 540.305 256.589 539.548 256.4 538.837C255.987 537.281 254.195 535.907 251.88 535.372C250.875 535.139 249.774 535.051 248.864 534.691C247.954 534.332 247.296 533.554 247.822 532.957C248.1 532.641 248.635 532.455 248.982 532.168C250.386 531.004 247.978 529.532 245.923 528.879L250.831 528.699L251.885 523.337C249.943 525.109 244.906 524.737 243.644 522.727C245.221 523.308 247.335 522.566 248.106 521.51C248.877 520.454 248.687 519.225 248.482 518.067C248.462 517.779 248.377 517.502 248.233 517.262C248.09 517.023 247.894 516.829 247.664 516.699C247.183 516.443 246.418 516.336 246.26 515.947C246.1 515.551 246.721 515.201 246.813 514.796C246.99 514.019 245.398 513.676 244.322 513.3C241.785 512.413 240.556 509.921 237.669 510.002C234.805 510.082 234.004 512.536 234.002 514.375C234 516.214 233.031 518.674 230.164 518.64C229.019 518.627 228.021 518.165 227.107 517.723L218.897 513.75C217.812 513.183 216.683 512.729 215.525 512.393C213.869 511.96 212.039 511.909 210.252 511.863L198.767 511.57C198.182 511.519 197.593 511.575 197.024 511.738C196.421 511.964 196.128 512.41 195.764 512.793C194.165 514.477 190.405 515.137 187.691 514.209C186.972 513.963 186.327 513.624 185.565 513.439C183.163 512.855 180.643 513.935 178.148 514.326C174.058 514.965 168.975 513.864 166.026 515.792C165.043 516.434 164.522 517.313 163.611 517.998C162.7 518.683 161.056 519.147 159.907 518.63C160.051 519.887 160.182 521.199 159.424 522.361C158.666 523.524 156.721 524.473 154.81 524.18C153.796 523.879 153.876 522.922 154.355 522.275C154.835 521.628 155.571 520.966 155.331 520.266C155.094 519.572 154.009 519.168 153.197 518.684C152.385 518.2 151.844 517.282 152.706 516.835C152.125 515.997 150.036 516.1 149.118 516.802C148.199 517.505 148.107 518.494 148.007 519.409C147.907 520.324 147.689 521.326 146.624 521.938C144.811 522.981 141.328 522.44 140.125 523.799C139.743 524.23 139.721 524.751 139.502 525.227C138.526 527.353 134.313 527.903 130.869 528.077C130.797 528.519 130.781 528.971 130.822 529.418C132 528.846 130.037 527.682 129.183 527.388Z" fill="#61AB43"/>
<path opacity="0.1" d="M248.731 524.778C248.929 526.048 249.111 527.394 248.371 528.551C248.261 528.718 248.136 528.869 248 529C248.996 528.958 249.992 528.917 250.988 528.875C251.325 526.917 251.663 524.958 252 523C251.227 523.804 249.944 524.204 248.62 524.242C248.668 524.417 248.705 524.596 248.731 524.778V524.778Z" fill="black"/>
<path opacity="0.1" d="M249 530.912C248.893 530.214 247.966 529.506 246.928 529C246.015 529.539 244.975 529.652 244 529.319C244.758 530.653 247.078 531.237 249 530.912Z" fill="black"/>
<path opacity="0.1" d="M250.966 535C250.939 535.138 250.913 535.275 250.886 535.413C249.257 535.474 247.629 535.534 246 535.595C248.046 536.253 250.443 537.737 249.045 538.909C248.7 539.198 248.167 539.386 247.89 539.704C247.367 540.306 248.022 541.09 248.928 541.453C249.834 541.815 250.929 541.904 251.93 542.138C254.234 542.678 256.018 544.063 256.43 545.631C256.618 546.347 256.547 547.11 257.031 547.765C257.702 548.676 259.245 549.141 260.419 549.802C260.532 549.865 260.641 549.932 260.748 550C261.809 549.318 262.573 548.438 262.864 547.486C263.378 545.809 262.409 543.974 260.419 542.854C259.245 542.193 257.702 541.729 257.031 540.818C256.547 540.163 256.618 539.4 256.43 538.684C256.018 537.116 254.234 535.731 251.93 535.191C251.615 535.117 251.291 535.058 250.966 535Z" fill="black"/>
<path opacity="0.1" d="M107.183 560C107.573 559.119 108.569 558.337 110 558.037C108.632 557.735 107.344 557.119 106.226 556.23C105.641 556.248 105.056 556.171 104.493 556C103.517 556.954 104.091 558.262 105.329 559.097C105.913 559.471 106.535 559.775 107.183 560V560Z" fill="black"/>
<path opacity="0.1" d="M115.339 532.91C116.042 532.62 116.762 532.383 117.494 532.201C119.708 531.638 122.314 531.001 122.958 529.55C123.164 529.086 123.14 528.569 123.54 528.158C124.317 527.357 126.439 527.458 127.32 528.215C128.201 528.971 127.98 530.074 127.16 530.857C126.734 531.263 126.147 531.641 126.07 532.125C125.924 533.037 127.543 533.597 128.823 534.03C129.426 534.244 129.99 534.572 130.49 535C130.501 534.903 130.511 534.807 130.52 534.711C133.984 534.539 138.221 533.995 139.203 531.891C139.423 531.42 139.445 530.905 139.83 530.477C141.04 529.133 144.542 529.668 146.367 528.636C147.437 528.03 147.657 527.038 147.758 526.133C147.858 525.228 147.951 524.249 148.875 523.553C149.799 522.858 151.899 522.757 152.483 523.586C151.616 524.028 152.161 524.936 152.977 525.416C153.794 525.895 154.886 526.294 155.124 526.982C155.365 527.675 154.625 528.329 154.143 528.97C153.66 529.61 153.58 530.557 154.6 530.854C156.522 531.144 158.478 530.205 159.241 529.055C160.004 527.904 159.871 526.606 159.726 525.362C160.882 525.874 162.535 525.415 163.452 524.737C164.368 524.059 164.893 523.189 165.881 522.553C168.847 520.646 173.96 521.736 178.074 521.103C180.584 520.716 183.118 519.647 185.534 520.225C186.301 520.408 186.949 520.744 187.673 520.988C190.402 521.906 194.184 521.253 195.793 519.585C196.158 519.207 196.453 518.766 197.06 518.542C197.632 518.381 198.224 518.325 198.812 518.376C202.663 518.472 206.514 518.569 210.365 518.666C212.163 518.711 214.003 518.761 215.669 519.19C216.834 519.523 217.969 519.972 219.06 520.533C221.813 521.843 224.566 523.154 227.318 524.465C228.238 524.902 229.242 525.359 230.393 525.373C233.276 525.406 234.251 522.972 234.253 521.152C234.255 519.332 235.061 516.903 237.942 516.824C240.846 516.744 242.081 519.21 244.633 520.088C245.715 520.46 247.317 520.799 247.139 521.568C247.056 521.925 246.553 522.24 246.558 522.581C247.276 522.394 247.93 521.98 248.439 521.39C249.215 520.345 249.024 519.13 248.817 517.983C248.798 517.698 248.711 517.424 248.567 517.187C248.423 516.95 248.226 516.758 247.994 516.63C247.511 516.376 246.741 516.27 246.583 515.886C246.421 515.494 247.046 515.147 247.139 514.747C247.317 513.977 245.715 513.638 244.633 513.266C242.081 512.388 240.846 509.922 237.942 510.002C235.061 510.081 234.255 512.51 234.253 514.33C234.251 516.15 233.276 518.584 230.393 518.551C229.242 518.538 228.238 518.081 227.318 517.643C224.566 516.332 221.813 515.022 219.06 513.711C217.969 513.15 216.834 512.701 215.669 512.369C214.003 511.939 212.163 511.889 210.365 511.844C206.514 511.747 202.663 511.65 198.812 511.554C198.224 511.503 197.632 511.559 197.06 511.72C196.453 511.944 196.158 512.385 195.793 512.764C194.184 514.431 190.402 515.084 187.673 514.166C186.949 513.922 186.301 513.587 185.534 513.403C183.118 512.825 180.584 513.894 178.074 514.281C173.96 514.914 168.847 513.824 165.881 515.732C164.893 516.368 164.368 517.237 163.452 517.915C162.535 518.593 160.882 519.052 159.726 518.541C159.871 519.784 160.004 521.082 159.241 522.233C158.478 523.384 156.522 524.323 154.6 524.033C153.58 523.735 153.66 522.788 154.143 522.148C154.625 521.507 155.365 520.853 155.124 520.16C154.886 519.473 153.794 519.073 152.977 518.594C152.161 518.115 151.616 517.206 152.483 516.764C151.899 515.935 149.799 516.036 148.875 516.732C147.951 517.427 147.858 518.406 147.758 519.311C147.657 520.217 147.437 521.208 146.367 521.814C144.542 522.846 141.04 522.311 139.83 523.656C139.445 524.083 139.423 524.598 139.203 525.069C138.221 527.173 133.984 527.718 130.52 527.889C130.511 527.985 130.501 528.081 130.49 528.178C129.99 527.75 129.426 527.422 128.823 527.208C127.543 526.775 125.924 526.215 126.07 525.304C126.147 524.819 126.734 524.441 127.16 524.035C127.98 523.252 128.201 522.149 127.32 521.393C126.439 520.637 124.317 520.535 123.54 521.336C123.14 521.747 123.164 522.264 122.958 522.729C122.314 524.179 119.708 524.816 117.494 525.38C115.281 525.943 112.804 526.992 113.012 528.492C113.236 530.103 116.543 531.535 115.339 532.91Z" fill="black"/>
<path opacity="0.1" d="M110.041 551.112C109.455 551.242 108.895 551.506 108.391 551.888C108.71 551.905 109.028 551.93 109.333 551.954C112.897 552.227 117.393 551.296 117.946 548.862C118.225 547.634 117.367 546.434 116.534 545.33C116.199 544.887 115.864 544.443 115.529 544C113.785 544.712 111.403 544.96 109.333 544.802C108.028 544.701 106.495 544.564 105.598 545.223C104.907 545.731 104.908 546.522 105.138 547.199C105.729 548.942 107.62 550.452 110.041 551.112Z" fill="black"/>
<path d="M184.5 540C204.658 540 221 527.688 221 512.5C221 497.312 204.658 485 184.5 485C164.342 485 148 497.312 148 512.5C148 527.688 164.342 540 184.5 540Z" fill="#EA565C"/>
<path opacity="0.2" d="M172.223 510.789C172.223 510.789 156.141 512.775 160.871 504.548C165.601 496.321 171.513 493.484 174.351 495.753C177.189 498.023 178.372 504.264 177.899 504.264C177.426 504.264 170.567 499.442 168.202 503.13C165.837 506.818 172.223 510.789 172.223 510.789Z" fill="white"/>
<path opacity="0.2" d="M186.655 512C186.655 512 200.83 522.574 192.231 525.008C183.632 527.443 177.199 525.083 176.217 521.317C175.234 517.55 177.894 512.139 178.277 512.493C178.66 512.846 181.419 521.468 185.471 520.56C189.524 519.652 186.655 512 186.655 512Z" fill="white"/>
<path opacity="0.2" d="M190 504.949C190 504.949 191.041 485.527 196.974 492.518C202.908 499.509 204.245 507.002 201.923 509.991C199.6 512.98 194.309 513.34 194.387 512.778C194.466 512.217 199.538 504.882 196.919 501.458C194.299 498.034 190 504.949 190 504.949Z" fill="white"/>
<path d="M140.5 538C160.658 538 177 525.688 177 510.5C177 495.312 160.658 483 140.5 483C120.342 483 104 495.312 104 510.5C104 525.688 120.342 538 140.5 538Z" fill="#EA565C"/>
<path opacity="0.2" d="M128.223 508.789C128.223 508.789 112.141 510.775 116.871 502.548C121.601 494.321 127.513 491.484 130.351 493.753C133.189 496.023 134.372 502.264 133.899 502.264C133.426 502.264 126.567 497.442 124.202 501.13C121.837 504.818 128.223 508.789 128.223 508.789Z" fill="white"/>
<path opacity="0.2" d="M142.655 509C142.655 509 156.83 520.329 148.231 522.937C139.632 525.546 133.199 523.018 132.217 518.982C131.234 514.947 133.894 509.149 134.277 509.528C134.66 509.907 137.419 519.145 141.471 518.171C145.524 517.198 142.655 509 142.655 509Z" fill="white"/>
<path opacity="0.2" d="M146 502.315C146 502.315 147.041 483.776 152.975 490.449C158.908 497.122 160.245 504.274 157.923 507.128C155.6 509.981 150.309 510.324 150.387 509.788C150.466 509.252 155.538 502.251 152.919 498.983C150.3 495.714 146 502.315 146 502.315Z" fill="white"/>
<path opacity="0.1" d="M159.372 487C167.323 492.04 172.376 499.588 172.376 508.025C172.376 523.2 156.034 535.502 135.874 535.502C128.967 535.502 122.507 534.057 117 531.548C123.35 535.573 131.547 538 140.498 538C160.657 538 177 525.698 177 510.523C177 500.547 169.938 491.814 159.372 487Z" fill="black"/>
<path opacity="0.1" d="M204.078 489C212.162 494.04 217.299 501.588 217.299 510.025C217.299 525.2 200.684 537.502 180.189 537.502C173.166 537.502 166.599 536.057 161 533.548C167.455 537.573 175.789 540 184.89 540C205.385 540 222 527.698 222 512.523C222 502.547 214.82 493.814 204.078 489Z" fill="black"/>
<path d="M118.367 505.124C118.367 505.124 149.833 467.096 226.912 482.803C287.844 495.219 237.809 516.591 214.171 525C207.313 527.439 200.208 528.884 193.028 529.3C166.36 530.852 99.284 532.239 118.367 505.124Z" fill="#714B4F"/>
<path opacity="0.1" d="M214.171 516.641C207.313 519.097 200.209 520.552 193.028 520.971C171.424 522.237 123.302 523.393 115.95 509.271C106.667 532.097 167.853 530.77 193.028 529.296C200.209 528.876 207.313 527.421 214.171 524.965C231.498 518.759 263.006 505.54 254.602 494C248.943 503.057 227.415 511.897 214.171 516.641Z" fill="black"/>
<path opacity="0.1" d="M186 483L194 502" stroke="black" stroke-width="2" stroke-miterlimit="10"/>
<path opacity="0.1" d="M159 490L167 506" stroke="black" stroke-width="2" stroke-miterlimit="10"/>
<path opacity="0.1" d="M201 483L212 502" stroke="black" stroke-width="2" stroke-miterlimit="10"/>
<path opacity="0.1" d="M159 508L236 497" stroke="black" stroke-width="2" stroke-miterlimit="10"/>
<path opacity="0.1" d="M233 487L239 495" stroke="black" stroke-width="2" stroke-miterlimit="10"/>
<path opacity="0.1" d="M144 497L148 505" stroke="black" stroke-width="2" stroke-miterlimit="10"/>
<path d="M155.348 470.511C155.348 470.511 225.475 470.151 226.118 469.432C226.761 468.713 241.559 468.332 244.454 473.006C247.349 477.68 248.314 479.838 244.454 480.557C240.594 481.276 113.529 554.983 113.529 554.983C113.529 554.983 106.452 555.702 109.991 547.792C113.529 539.882 155.348 470.511 155.348 470.511Z" fill="#F6C964"/>
<path d="M185 503.327C185 506.434 172.24 514 156.5 514C140.76 514 128 506.434 128 503.327C128 500.22 140.76 499 156.5 499C172.24 499 185 500.22 185 503.327Z" fill="#61AB43"/>
<path d="M156.5 509C172.24 509 185 506.538 185 503.5C185 500.462 172.24 498 156.5 498C140.76 498 128 500.462 128 503.5C128 506.538 140.76 509 156.5 509Z" fill="#61AB43"/>
<path d="M219 498.327C219 501.434 206.464 509 191 509C175.536 509 163 501.434 163 498.327C163 495.22 175.536 494 191 494C206.464 494 219 495.22 219 498.327Z" fill="#61AB43"/>
<path d="M191 504C206.464 504 219 501.538 219 498.5C219 495.462 206.464 493 191 493C175.536 493 163 495.462 163 498.5C163 501.538 175.536 504 191 504Z" fill="#61AB43"/>
<path d="M253 493.327C253 496.434 240.464 504 225 504C209.536 504 197 496.434 197 493.327C197 490.22 209.536 489 225 489C240.464 489 253 490.22 253 493.327Z" fill="#61AB43"/>
<path d="M225 499C240.464 499 253 496.538 253 493.5C253 490.462 240.464 488 225 488C209.536 488 197 490.462 197 493.5C197 496.538 209.536 499 225 499Z" fill="#61AB43"/>
<path d="M120.401 495.426C120.401 495.426 108.729 493.266 114.701 482.468C120.672 471.669 122.68 459.565 125.286 456.86C128.199 453.837 188.329 400.827 235.172 459.485C240.135 465.774 244.169 472.934 247.118 480.689C247.685 482.155 248.31 483.471 248.92 484.165C250.82 486.324 252.449 492.495 248.92 495.58C245.392 498.665 141.436 510.698 120.401 495.426Z" fill="#3F3D56"/>
<path d="M175 450.5C174.411 450.807 173.717 450.981 173 451C171.895 451 171 450.776 171 450.5C171 450.224 171.895 450 173 450C173.717 450.019 174.411 450.193 175 450.5V450.5Z" fill="#F2F2F2"/>
<path d="M156 445C155.264 445.614 154.396 445.961 153.5 446C152.119 446 151 445.552 151 445C151 444.448 152.119 444 153.5 444C154.396 444.039 155.264 444.386 156 445V445Z" fill="#F2F2F2"/>
<path d="M209 452.791C208.106 453.053 207.15 453.069 206.247 452.838C204.87 452.436 203.87 451.764 204.014 451.336C204.157 450.907 205.39 450.886 206.767 451.288C207.65 451.579 208.426 452.1 209 452.791Z" fill="#F2F2F2"/>
<path d="M173 437.686C172.106 438.079 171.15 438.104 170.247 437.757C168.87 437.155 167.87 436.146 168.014 435.503C168.157 434.861 169.39 434.829 170.767 435.432C171.65 435.868 172.426 436.65 173 437.686V437.686Z" fill="#F2F2F2"/>
<path d="M212 442.791C211.106 443.053 210.15 443.069 209.247 442.838C207.87 442.436 206.87 441.764 207.014 441.336C207.157 440.907 208.39 440.886 209.767 441.288C210.65 441.579 211.426 442.1 212 442.791V442.791Z" fill="#F2F2F2"/>
<path d="M204 442C203.264 442.614 202.396 442.961 201.5 443C200.119 443 199 442.552 199 442C199 441.448 200.119 441 201.5 441C202.396 441.039 203.264 441.386 204 442V442Z" fill="#F2F2F2"/>
<path d="M181 437C180.264 437.614 179.396 437.961 178.5 438C177.119 438 176 437.552 176 437C176 436.448 177.119 436 178.5 436C179.396 436.039 180.264 436.386 181 437V437Z" fill="#F2F2F2"/>
<path d="M199 437C198.264 437.614 197.396 437.961 196.5 438C195.119 438 194 437.552 194 437C194 436.448 195.119 436 196.5 436C197.396 436.039 198.264 436.386 199 437V437Z" fill="#F2F2F2"/>
<path d="M192 449C191.264 449.614 190.396 449.961 189.5 450C188.119 450 187 449.552 187 449C187 448.448 188.119 448 189.5 448C190.396 448.039 191.264 448.386 192 449V449Z" fill="#F2F2F2"/>
<path d="M172 446C172.219 445.24 172.696 444.548 173.375 444.007C174.456 443.206 175.593 442.799 175.915 443.098C176.236 443.398 175.621 444.29 174.539 445.091C173.815 445.59 172.934 445.906 172 446Z" fill="#F2F2F2"/>
<path d="M160 443C160.219 441.986 160.696 441.064 161.375 440.343C162.456 439.275 163.593 438.732 163.915 439.131C164.236 439.53 163.621 440.72 162.54 441.788C161.815 442.454 160.934 442.874 160 443V443Z" fill="#F2F2F2"/>
<path d="M139 460C139.219 458.986 139.696 458.064 140.375 457.343C141.456 456.275 142.593 455.732 142.915 456.131C143.236 456.53 142.621 457.72 141.54 458.788C140.815 459.454 139.934 459.874 139 460Z" fill="#F2F2F2"/>
<path d="M186 441C186.219 439.986 186.696 439.064 187.375 438.343C188.456 437.275 189.593 436.732 189.915 437.131C190.236 437.53 189.621 438.72 188.54 439.788C187.816 440.454 186.934 440.874 186 441Z" fill="#F2F2F2"/>
<path d="M181 452C181.219 450.986 181.696 450.064 182.375 449.343C183.456 448.275 184.593 447.732 184.915 448.131C185.236 448.53 184.621 449.72 183.54 450.788C182.815 451.454 181.934 451.874 181 452Z" fill="#F2F2F2"/>
<path d="M610.884 341.649C611.884 342.824 612.626 344.196 613.062 345.676C613.498 347.156 613.619 348.711 613.416 350.241C613.213 351.771 612.691 353.241 611.883 354.556C611.076 355.871 610.001 357.002 608.729 357.875L554.959 394.792L531.282 410.577C529.937 411.473 528.307 411.837 526.708 411.598C525.11 411.359 523.657 410.533 522.634 409.282V409.282C522.037 408.553 521.606 407.703 521.37 406.791C521.134 405.878 521.098 404.926 521.267 403.998C521.435 403.071 521.802 402.192 522.344 401.42C522.885 400.649 523.588 400.005 524.403 399.531L547.336 386.215L587.359 348.098L561.63 320.463L580.688 306.169L610.884 341.649Z" fill="#A0616A"/>
<path d="M484.442 689.248H471.289L463.477 580.613L496.83 579.66L484.442 689.248Z" fill="#A0616A"/>
<path d="M485.394 724.507C481.887 726.107 478.949 713.139 475.991 716.046C467.716 724.178 455.045 725.949 444 722.399L447.866 722.355C447.199 722.141 446.583 721.794 446.055 721.335C445.526 720.875 445.097 720.313 444.792 719.683C444.487 719.053 444.313 718.367 444.281 717.668C444.249 716.969 444.359 716.27 444.605 715.615V715.615C444.899 714.83 445.38 714.129 446.005 713.571C446.63 713.014 447.381 712.616 448.194 712.413L456.994 710.213L470.812 685.913L484.917 684.96C488.062 688.969 490.257 693.639 491.336 698.619C492.416 703.598 492.352 708.758 491.15 713.709C489.87 718.934 487.894 723.366 485.394 724.507Z" fill="#2F2E41"/>
<path d="M572.018 689.248H558.865L551.053 580.613L585.359 573.943L572.018 689.248Z" fill="#A0616A"/>
<path d="M572.97 724.507C569.463 726.108 566.525 713.14 563.567 716.047C555.292 724.179 542.621 725.95 531.576 722.399L535.442 722.356C534.775 722.142 534.159 721.795 533.631 721.335C533.103 720.876 532.673 720.314 532.368 719.684C532.063 719.054 531.89 718.368 531.857 717.669C531.825 716.969 531.936 716.271 532.181 715.615C532.476 714.831 532.956 714.13 533.581 713.572C534.206 713.014 534.957 712.617 535.77 712.414L544.57 710.214L558.388 685.914L573.447 684.008L573.827 684.63C576.738 689.322 578.615 694.58 579.333 700.055C580.05 705.53 579.592 711.095 577.988 716.379C576.735 720.391 575.031 723.567 572.97 724.507Z" fill="#2F2E41"/>
<path d="M586.931 308.626C574.836 310.309 566.462 316.933 563.051 330.147L540.818 289.097C539.5 286.488 539.166 283.492 539.877 280.657C540.589 277.822 542.298 275.338 544.692 273.661C547.232 271.88 550.357 271.139 553.427 271.588C556.497 272.037 559.278 273.644 561.202 276.077L586.931 308.626Z" fill="#1600BF"/>
<path d="M610.229 569.179C556.171 593.097 500.848 596.04 444.418 580.614C465.024 500.693 489.356 428.426 489.206 369.063L544.476 364.298L552.986 377.789C573.176 409.798 587.113 445.346 594.058 482.549L610.229 569.179Z" fill="#2F2E41"/>
<path d="M519.701 246.133C535.49 246.133 548.289 233.334 548.289 217.545C548.289 201.756 535.49 188.957 519.701 188.957C503.913 188.957 491.113 201.756 491.113 217.545C491.113 233.334 503.913 246.133 519.701 246.133Z" fill="#A0616A"/>
<path d="M551.148 268.05L515.89 269.956L510.172 238.509L538.76 233.745L551.148 268.05Z" fill="#A0616A"/>
<path d="M547.336 369.062L508.709 370.15L489.207 372.874C479.634 341.253 471.575 309.704 491.113 283.298L513.983 260.428L548.289 259.475L548.743 259.734C554.191 262.856 558.414 267.74 560.714 273.582C563.015 279.424 563.257 285.876 561.4 291.874C552.887 319.538 547.419 345.663 547.336 369.062Z" fill="#1600BF"/>
<path d="M488.254 457.686L485.858 490.432C485.729 492.186 484.972 493.835 483.724 495.074C482.477 496.314 480.823 497.061 479.068 497.178V497.178C478.057 497.245 477.043 497.101 476.091 496.755C475.138 496.409 474.269 495.868 473.537 495.167C472.805 494.466 472.228 493.62 471.841 492.683C471.454 491.746 471.267 490.739 471.291 489.726L472.054 457.686L495.877 367.157L496.83 311.887L523.513 310.934L521.607 374.78L488.254 457.686Z" fill="#A0616A"/>
<path d="M526.371 315.698C515.058 311.098 504.493 312.638 494.924 322.368L496.235 275.702C496.4 272.784 497.611 270.023 499.647 267.925C501.682 265.827 504.405 264.533 507.317 264.28V264.28C510.408 264.011 513.484 264.935 515.917 266.861C518.349 268.787 519.952 271.57 520.399 274.64L526.371 315.698Z" fill="#1600BF"/>
<path d="M580.211 344.762H492.541C512.993 290.605 519.588 240.223 492.541 197.057C493.005 184.092 509.634 172.852 522.548 174.094C537.8 175.561 558.295 186.768 561.152 201.822L580.211 344.762Z" fill="#2F2E41"/>
<path d="M189.912 135H170.472C169.788 135 169.133 135.272 168.649 135.755C168.166 136.238 167.895 136.894 167.895 137.577V146.11C167.895 146.794 168.166 147.449 168.649 147.933C169.133 148.416 169.788 148.688 170.472 148.688H173.693V161.473H186.691V148.688H189.912C190.596 148.688 191.251 148.416 191.735 147.933C192.218 147.449 192.489 146.794 192.489 146.11V137.577C192.489 136.894 192.218 136.238 191.735 135.755C191.251 135.272 190.596 135 189.912 135Z" fill="#1600BF"/>
<path d="M209.385 213.093C197.479 195.671 191.392 174.929 191.997 153.836C192.008 153.35 191.85 152.874 191.55 152.491C191.25 152.107 190.827 151.84 190.352 151.733V148.046H169.82V151.682H169.538C169.261 151.682 168.987 151.737 168.732 151.843C168.476 151.949 168.244 152.105 168.049 152.301C167.853 152.497 167.698 152.729 167.593 152.985C167.487 153.24 167.433 153.514 167.434 153.791C167.434 153.842 167.436 153.893 167.439 153.944C169.057 176.492 163.595 196.712 151.054 214.605C150.332 215.633 149.963 216.868 150.003 218.123L152.248 287.568C152.302 289.117 152.952 290.585 154.063 291.666C155.173 292.747 156.658 293.358 158.208 293.37H204.647C206.215 293.357 207.715 292.733 208.829 291.63C209.943 290.527 210.582 289.033 210.611 287.466L211.476 220.041C211.502 217.566 210.772 215.142 209.385 213.093V213.093Z" fill="#3F3D56"/>
<path d="M202.032 236.16H196.409C195.872 232.676 194.106 229.5 191.431 227.205C188.755 224.91 185.347 223.648 181.822 223.648C178.297 223.648 174.889 224.91 172.213 227.205C169.537 229.5 167.772 232.676 167.235 236.16H161.611C161.013 236.16 160.421 236.289 159.878 236.539C159.334 236.789 158.851 237.154 158.461 237.608C158.072 238.062 157.785 238.595 157.621 239.17C157.456 239.745 157.418 240.349 157.509 240.941L163.617 280.645H198.692L206.111 241.075C206.224 240.475 206.203 239.859 206.05 239.268C205.897 238.678 205.615 238.129 205.226 237.66C204.836 237.19 204.348 236.813 203.796 236.553C203.245 236.294 202.642 236.16 202.032 236.16V236.16Z" fill="#1600BF"/>
</g>
<defs>
<clipPath id="clip0">
<rect width="769.924" height="727.778" fill="white"/>
</clipPath>
</defs>
</svg>
