<svg width="43" height="43" viewBox="0 0 43 43" fill="none" xmlns="http://www.w3.org/2000/svg">
<path d="M7.85154 0C3.50213 0 0 3.50213 0 7.85154V35.1485C0 39.4979 3.50213 43 7.85154 43H22.6463V26.1897H18.2011V20.1375H22.6463V14.9667C22.6463 10.9043 25.2726 7.17429 31.3228 7.17429C33.7725 7.17429 35.5839 7.40946 35.5839 7.40946L35.4414 13.0613C35.4414 13.0613 33.594 13.0438 31.5781 13.0438C29.3963 13.0438 29.0465 14.0491 29.0465 15.7179V20.1375H35.6147L35.3285 26.1898H29.0465V43.0001H35.1485C39.4979 43.0001 43 39.498 43 35.1485V7.85159C43 3.50218 39.4979 4.3e-05 35.1485 4.3e-05H7.8515L7.85154 0Z" fill="#966BE8"/>
</svg>
