<svg width="45" height="45" viewBox="0 0 45 45" fill="none" xmlns="http://www.w3.org/2000/svg">
<path fill-rule="evenodd" clip-rule="evenodd" d="M36.6882 10.3423C36.6882 11.8125 35.4963 13.0044 34.0261 13.0044C32.5558 13.0044 31.3638 11.8125 31.3638 10.3423C31.3638 8.87205 32.5558 7.68017 34.0261 7.68017C35.4963 7.68017 36.6882 8.87205 36.6882 10.3423ZM22.1844 29.5791C18.1004 29.5791 14.7896 26.2683 14.7896 22.1843C14.7896 18.1003 18.1004 14.7895 22.1844 14.7895C26.2683 14.7895 29.5791 18.1003 29.5791 22.1843C29.5791 26.2683 26.2683 29.5791 22.1844 29.5791ZM22.1839 10.792C15.8925 10.792 10.792 15.8923 10.792 22.1839C10.792 28.4754 15.8925 33.5759 22.1839 33.5759C28.4754 33.5759 33.5759 28.4754 33.5759 22.1839C33.5759 15.8923 28.4754 10.792 22.1839 10.792ZM22.1842 0C16.1593 0 15.404 0.0254772 13.0377 0.133452C10.6765 0.241253 9.06381 0.616132 7.65269 1.16467C6.1939 1.73158 4.95679 2.49018 3.72348 3.72348C2.49018 4.95661 1.73158 6.19373 1.16467 7.65269C0.616305 9.06381 0.241253 10.6763 0.133452 13.0377C0.0254772 15.4038 0 16.1593 0 22.1842C0 28.2091 0.0254772 28.9646 0.133452 31.3307C0.241253 33.6919 0.616305 35.3046 1.16467 36.7158C1.73158 38.1744 2.49018 39.4117 3.72348 40.645C4.95679 41.8783 6.1939 42.6369 7.65269 43.2038C9.06381 43.7523 10.6765 44.1272 13.0377 44.235C15.404 44.343 16.1593 44.3684 22.1842 44.3684C28.2091 44.3684 28.9648 44.343 31.3307 44.235C33.6921 44.1272 35.3046 43.7523 36.7158 43.2038C38.1745 42.6369 39.4118 41.8783 40.6451 40.645C41.8783 39.4117 42.6369 38.1745 43.2039 36.7158C43.7523 35.3046 44.1272 33.6919 44.235 31.3307C44.343 28.9646 44.3684 28.2091 44.3684 22.1842C44.3684 16.1593 44.343 15.4038 44.235 13.0377C44.1272 10.6763 43.7523 9.06381 43.2039 7.65269C42.6369 6.19373 41.8783 4.95661 40.6451 3.72348C39.4118 2.49018 38.1745 1.73158 36.7158 1.16467C35.3046 0.616132 33.6921 0.241253 31.3307 0.133452C28.9648 0.0254772 28.2091 0 22.1842 0ZM22.1841 3.99688C28.1077 3.99688 28.8093 4.01942 31.1485 4.12618C33.3114 4.22497 34.486 4.58633 35.268 4.88997C36.3032 5.29241 37.0424 5.77336 37.8185 6.54946C38.5949 7.32573 39.0755 8.06492 39.4781 9.1003C39.782 9.88212 40.1433 11.0568 40.2419 13.2196C40.3487 15.5589 40.3712 16.2604 40.3712 22.184C40.3712 28.1073 40.3487 28.8089 40.2419 31.1481C40.1433 33.3113 39.782 34.4858 39.4781 35.2676C39.0755 36.303 38.5949 37.042 37.8185 37.8185C37.0424 38.5946 36.3032 39.0755 35.268 39.4778C34.486 39.7816 33.3114 40.143 31.1485 40.2417C28.8096 40.3483 28.108 40.3709 22.1841 40.3709C16.2604 40.3709 15.5587 40.3483 13.2198 40.2417C11.057 40.143 9.8823 39.7816 9.10065 39.4778C8.0651 39.0755 7.32592 38.5946 6.54964 37.8185C5.77354 37.042 5.29277 36.303 4.89033 35.2676C4.58651 34.4858 4.22515 33.3113 4.12654 31.1483C4.0196 28.8089 3.99707 28.1073 3.99707 22.184C3.99707 16.2604 4.0196 15.5589 4.12654 13.2196C4.22515 11.0568 4.58651 9.88212 4.89033 9.1003C5.29277 8.06492 5.77354 7.32573 6.54964 6.54946C7.32592 5.77336 8.0651 5.29241 9.10065 4.88997C9.8823 4.58633 11.057 4.22497 13.2198 4.12618C15.559 4.01942 16.2608 3.99688 22.1841 3.99688Z" fill="#966BE8"/>
</svg>
