<svg width="53" height="45" viewBox="0 0 53 45" fill="none" xmlns="http://www.w3.org/2000/svg">
<path fill-rule="evenodd" clip-rule="evenodd" d="M16.4616 44.2895C36.2129 44.2895 47.0163 27.2482 47.0163 12.4715C47.0163 11.9864 47.0163 11.5041 46.9849 11.0244C49.0865 9.44372 50.9001 7.4815 52.3421 5.23585C50.3845 6.14065 48.3039 6.73477 46.1762 6.9964C48.4165 5.59832 50.094 3.40172 50.8975 0.80995C48.7881 2.11265 46.4824 3.03108 44.0773 3.52436C40.0103 -0.977851 33.2085 -1.19588 28.8824 3.03925C26.0952 5.77001 24.9096 9.84162 25.7759 13.7252C17.1421 13.2728 9.09706 9.02675 3.64301 2.04179C0.792984 7.15174 2.25071 13.687 6.96936 16.9683C5.26039 16.9165 3.58805 16.4369 2.09369 15.5702V15.7119C2.0963 21.0345 5.70006 25.6184 10.7092 26.6731C9.12847 27.1228 7.46922 27.1882 5.86232 26.8639C7.26771 31.4206 11.3007 34.5411 15.8937 34.631C12.091 37.7433 7.39333 39.433 2.55691 39.4276C1.70374 39.4248 0.85056 39.3731 0 39.2668C4.91231 42.548 10.6255 44.2895 16.4616 44.2813" fill="#966BE8"/>
</svg>
